<?xml version="1.0" standalone="no"?>
<!DOCTYPE svg PUBLIC "-//W3C//DTD SVG 20010904//EN"
 "http://www.w3.org/TR/2001/REC-SVG-20010904/DTD/svg10.dtd">
<svg version="1.0" xmlns="http://www.w3.org/2000/svg"
 width="262.000000pt" height="262.000000pt" viewBox="0 0 262.000000 262.000000"
 preserveAspectRatio="xMidYMid meet">
<metadata>
Created by potrace 1.11, written by Peter Selinger 2001-2013
</metadata>
<g transform="translate(0.000000,262.000000) scale(0.100000,-0.100000)"
fill="#000000" stroke="none">
<path d="M1115 2600 c-22 -4 -53 -10 -70 -13 -220 -40 -467 -168 -635 -329
-121 -115 -191 -210 -264 -354 -57 -114 -94 -220 -112 -329 -3 -16 -8 -41 -11
-55 -13 -66 -12 -330 3 -425 14 -93 20 -123 24 -135 1 -3 3 -9 4 -15 6 -41 48
-148 96 -241 87 -170 188 -297 320 -403 25 -20 47 -39 50 -42 12 -13 99 -69
108 -69 6 0 12 -3 14 -8 8 -19 262 -129 280 -122 2 1 17 -4 33 -10 17 -7 41
-14 55 -16 14 -3 59 -11 100 -18 89 -15 328 -13 420 3 100 18 235 59 304 91
35 17 66 30 70 30 13 0 202 127 245 166 144 127 231 236 315 396 38 74 88 204
102 269 43 197 47 447 9 629 -25 122 -130 377 -169 409 -9 7 -16 18 -16 23 0
16 -92 130 -161 200 -63 63 -217 184 -249 196 -8 3 -31 15 -50 27 -58 35 -170
81 -253 104 -76 22 -95 26 -147 37 -44 9 -374 12 -415 4z"/>
</g>
</svg>
